<svg xmlns="http://www.w3.org/2000/svg" version="1.1" xmlns:xlink="http://www.w3.org/1999/xlink" xmlns:svgjs="http://svgjs.dev/svgjs" width="1500" height="1500" viewBox="0 0 1500 1500"><rect width="1500" height="1500" fill="#ffffff"></rect><g transform="matrix(0.6666666666666666,0,0,0.6666666666666666,249.39393939393938,438.5856950067477)"><svg viewBox="0 0 396 247" data-background-color="#ffffff" preserveAspectRatio="xMidYMid meet" height="935" width="1500" xmlns="http://www.w3.org/2000/svg" xmlns:xlink="http://www.w3.org/1999/xlink"><g id="tight-bounds" transform="matrix(1,0,0,1,0.2400000000000091,-0.09999999999999432)"><svg viewBox="0 0 395.52 247.2" height="247.2" width="395.52"><g><svg></svg></g><g><svg viewBox="0 0 395.52 247.2" height="247.2" width="395.52"><mask id="9916e3cf-a181-4eba-ac58-67d4ca386fbd"><rect width="640" height="400" fill="white"></rect><g transform="matrix(1,0,0,1,39.55199999999999,87.12096240601502)"><svg viewBox="0 0 316.416 72.95807518796992" height="72.95807518796992" width="316.416"><g><svg viewBox="0 0 316.416 72.95807518796992" height="72.95807518796992" width="316.416"><g><svg viewBox="0 0 316.416 72.95807518796992" height="72.95807518796992" width="316.416"><g><svg viewBox="0 0 316.416 72.95807518796992" height="72.95807518796992" width="316.416"><g id="SvgjsG1288"><svg viewBox="0 0 316.416 72.95807518796992" height="72.95807518796992" width="316.416" id="SvgjsSvg1287"><g><svg viewBox="0 0 316.416 72.95807518796992" height="72.95807518796992" width="316.416"><g transform="matrix(1,0,0,1,0,0)"><svg width="316.416" viewBox="0.2999999999999998 -42.8 240.38 56.199999999999996" height="72.95807518796992" data-palette-color="#00c8bc"><path d="M32.1 0L28.05 0Q26.95-1.85 25.53-4.15 24.1-6.45 22.45-8.93 20.8-11.4 19.03-13.95 17.25-16.5 15.5-18.88 13.75-21.25 12.1-23.35 10.45-25.45 9.05-27.05L9.05-27.05 9.05 0 4.3 0 4.3-34.65 8.15-34.65Q10.5-32.15 13.18-28.83 15.85-25.5 18.48-21.98 21.1-18.45 23.43-15.05 25.75-11.65 27.35-9L27.35-9 27.35-34.65 32.1-34.65 32.1 0ZM38.95-12.95L38.95-12.95Q38.95-16.4 39.95-18.98 40.95-21.55 42.6-23.25 44.25-24.95 46.4-25.8 48.55-26.65 50.8-26.65L50.8-26.65Q56.05-26.65 58.85-23.38 61.65-20.1 61.65-13.4L61.65-13.4Q61.65-13.1 61.65-12.63 61.65-12.15 61.6-11.75L61.6-11.75 43.8-11.75Q44.1-7.7 46.15-5.6 48.2-3.5 52.55-3.5L52.55-3.5Q55-3.5 56.67-3.93 58.35-4.35 59.2-4.75L59.2-4.75 59.85-0.85Q59-0.4 56.87 0.1 54.75 0.6 52.05 0.6L52.05 0.6Q48.65 0.6 46.17-0.43 43.7-1.45 42.1-3.25 40.5-5.05 39.72-7.53 38.95-10 38.95-12.95ZM43.9-15.5L56.8-15.5Q56.85-18.65 55.22-20.68 53.6-22.7 50.75-22.7L50.75-22.7Q49.15-22.7 47.92-22.08 46.7-21.45 45.85-20.45 45-19.45 44.52-18.15 44.05-16.85 43.9-15.5L43.9-15.5ZM93.64 0L89.59 0Q88.19-3.6 86.62-8.22 85.05-12.85 83.75-17.85L83.75-17.85Q82.44-12.85 80.89-8.22 79.34-3.6 77.94 0L77.94 0 73.89 0Q71.59-5.15 69.39-11.75 67.19-18.35 65.25-26L65.25-26 70.25-26Q70.75-23.65 71.44-20.9 72.14-18.15 72.92-15.4 73.69-12.65 74.55-10.1 75.39-7.55 76.14-5.65L76.14-5.65Q77-8 77.82-10.63 78.64-13.25 79.39-15.93 80.14-18.6 80.82-21.18 81.5-23.75 82-26L82-26 85.84-26Q86.3-23.75 86.94-21.18 87.59-18.6 88.34-15.93 89.09-13.25 89.92-10.63 90.75-8 91.59-5.65L91.59-5.65Q92.34-7.55 93.17-10.1 94-12.65 94.8-15.4 95.59-18.15 96.3-20.9 97-23.65 97.5-26L97.5-26 102.3-26Q100.34-18.35 98.15-11.75 95.94-5.15 93.64 0L93.64 0ZM115.54-3.45L115.54-3.45Q123.14-3.45 123.14-8.65L123.14-8.65Q123.14-10.25 122.47-11.38 121.79-12.5 120.64-13.33 119.49-14.15 118.02-14.75 116.54-15.35 114.89-15.95L114.89-15.95Q112.99-16.6 111.29-17.43 109.59-18.25 108.34-19.38 107.09-20.5 106.37-22.05 105.64-23.6 105.64-25.8L105.64-25.8Q105.64-30.35 108.74-32.9 111.84-35.45 117.29-35.45L117.29-35.45Q120.44-35.45 123.02-34.77 125.59-34.1 126.79-33.3L126.79-33.3 125.24-29.35Q124.19-30 122.12-30.63 120.04-31.25 117.29-31.25L117.29-31.25Q115.89-31.25 114.69-30.95 113.49-30.65 112.59-30.05 111.69-29.45 111.17-28.53 110.64-27.6 110.64-26.35L110.64-26.35Q110.64-24.95 111.19-24 111.74-23.05 112.74-22.33 113.74-21.6 115.07-21 116.39-20.4 117.99-19.8L117.99-19.8Q120.24-18.9 122.12-18 123.99-17.1 125.37-15.85 126.74-14.6 127.49-12.88 128.24-11.15 128.24-8.7L128.24-8.7Q128.24-4.15 124.92-1.7 121.59 0.75 115.54 0.75L115.54 0.75Q113.49 0.75 111.77 0.48 110.04 0.2 108.69-0.18 107.34-0.55 106.37-0.98 105.39-1.4 104.84-1.7L104.84-1.7 106.29-5.7Q107.44-5.05 109.79-4.25 112.14-3.45 115.54-3.45ZM138.14-34.05L138.14-26 147.99-26 147.99-22.1 138.14-22.1 138.14-10.1Q138.14-8.15 138.44-6.88 138.74-5.6 139.34-4.88 139.94-4.15 140.84-3.85 141.74-3.55 142.94-3.55L142.94-3.55Q145.04-3.55 146.31-4.03 147.59-4.5 148.09-4.7L148.09-4.7 148.99-0.85Q148.29-0.5 146.54 0.03 144.79 0.55 142.54 0.55L142.54 0.55Q139.89 0.55 138.16-0.13 136.44-0.8 135.39-2.15 134.34-3.5 133.91-5.48 133.49-7.45 133.49-10.05L133.49-10.05 133.49-33.25 138.14-34.05ZM149.99 8.6L150.84 4.85Q151.39 5.1 152.26 5.33 153.14 5.55 153.99 5.55L153.99 5.55Q156.74 5.55 158.29 4.33 159.84 3.1 161.09 0.35L161.09 0.35Q157.94-5.65 155.21-12.38 152.49-19.1 150.69-26L150.69-26 155.69-26Q156.24-23.75 157.01-21.15 157.79-18.55 158.74-15.8 159.69-13.05 160.79-10.3 161.89-7.55 163.09-5L163.09-5Q164.99-10.25 166.39-15.4 167.79-20.55 169.04-26L169.04-26 173.84-26Q172.04-18.65 169.84-11.88 167.64-5.1 165.09 0.8L165.09 0.8Q164.09 3.05 163.01 4.67 161.94 6.3 160.64 7.35 159.34 8.4 157.71 8.9 156.09 9.4 154.04 9.4L154.04 9.4Q153.49 9.4 152.89 9.33 152.29 9.25 151.71 9.13 151.14 9 150.66 8.85 150.19 8.7 149.99 8.6L149.99 8.6ZM187.18-3.4L186.53 0.5Q182.23 0.4 180.43-1.35 178.63-3.1 178.63-6.8L178.63-6.8 178.63-38 183.28-38.8 183.28-7.55Q183.28-6.4 183.48-5.65 183.68-4.9 184.13-4.45 184.58-4 185.33-3.78 186.08-3.55 187.18-3.4L187.18-3.4ZM190.93-12.95L190.93-12.95Q190.93-16.4 191.93-18.98 192.93-21.55 194.58-23.25 196.23-24.95 198.38-25.8 200.53-26.65 202.78-26.65L202.78-26.65Q208.03-26.65 210.83-23.38 213.63-20.1 213.63-13.4L213.63-13.4Q213.63-13.1 213.63-12.63 213.63-12.15 213.58-11.75L213.58-11.75 195.78-11.75Q196.08-7.7 198.13-5.6 200.18-3.5 204.53-3.5L204.53-3.5Q206.98-3.5 208.66-3.93 210.33-4.35 211.18-4.75L211.18-4.75 211.83-0.85Q210.98-0.4 208.86 0.1 206.73 0.6 204.03 0.6L204.03 0.6Q200.63 0.6 198.16-0.43 195.68-1.45 194.08-3.25 192.48-5.05 191.71-7.53 190.93-10 190.93-12.95ZM195.88-15.5L208.78-15.5Q208.83-18.65 207.21-20.68 205.58-22.7 202.73-22.7L202.73-22.7Q201.13-22.7 199.91-22.08 198.68-21.45 197.83-20.45 196.98-19.45 196.51-18.15 196.03-16.85 195.88-15.5L195.88-15.5ZM226.38-3.35L226.38-3.35Q229.23-3.35 230.6-4.1 231.98-4.85 231.98-6.5L231.98-6.5Q231.98-8.2 230.63-9.2 229.28-10.2 226.18-11.45L226.18-11.45Q224.68-12.05 223.3-12.68 221.93-13.3 220.93-14.15 219.93-15 219.33-16.2 218.73-17.4 218.73-19.15L218.73-19.15Q218.73-22.6 221.28-24.63 223.83-26.65 228.23-26.65L228.23-26.65Q229.33-26.65 230.43-26.53 231.53-26.4 232.48-26.23 233.43-26.05 234.15-25.85 234.88-25.65 235.28-25.5L235.28-25.5 234.43-21.5Q233.68-21.9 232.08-22.33 230.48-22.75 228.23-22.75L228.23-22.75Q226.28-22.75 224.83-21.98 223.38-21.2 223.38-19.55L223.38-19.55Q223.38-18.7 223.7-18.05 224.03-17.4 224.7-16.88 225.38-16.35 226.38-15.9 227.38-15.45 228.78-14.95L228.78-14.95Q230.63-14.25 232.08-13.58 233.53-12.9 234.55-12 235.58-11.1 236.13-9.83 236.68-8.55 236.68-6.7L236.68-6.7Q236.68-3.1 234-1.25 231.33 0.6 226.38 0.6L226.38 0.6Q222.93 0.6 220.98 0.03 219.03-0.55 218.33-0.85L218.33-0.85 219.18-4.85Q219.98-4.55 221.73-3.95 223.48-3.35 226.38-3.35Z" opacity="1" transform="matrix(1,0,0,1,0,0)" fill="black" class="wordmark-text-0" id="SvgjsPath1286" stroke-width="7" stroke="black" stroke-linejoin="round"></path></svg></g></svg></g></svg></g></svg></g></svg></g></svg></g></svg></g></mask><g transform="matrix(1,0,0,1,39.55199999999999,87.12096240601502)"><svg viewBox="0 0 316.416 72.95807518796992" height="72.95807518796992" width="316.416"><g><svg viewBox="0 0 316.416 72.95807518796992" height="72.95807518796992" width="316.416"><g><svg viewBox="0 0 316.416 72.95807518796992" height="72.95807518796992" width="316.416"><g><svg viewBox="0 0 316.416 72.95807518796992" height="72.95807518796992" width="316.416"><g id="textblocktransform"><svg viewBox="0 0 316.416 72.95807518796992" height="72.95807518796992" width="316.416" id="textblock"><g><svg viewBox="0 0 316.416 72.95807518796992" height="72.95807518796992" width="316.416"><g transform="matrix(1,0,0,1,0,0)"><svg width="316.416" viewBox="0.2999999999999998 -42.8 240.38 56.199999999999996" height="72.95807518796992" data-palette-color="#00c8bc"><path d="M32.1 0L28.05 0Q26.95-1.85 25.53-4.15 24.1-6.45 22.45-8.93 20.8-11.4 19.03-13.95 17.25-16.5 15.5-18.88 13.75-21.25 12.1-23.35 10.45-25.45 9.05-27.05L9.05-27.05 9.05 0 4.3 0 4.3-34.65 8.15-34.65Q10.5-32.15 13.18-28.83 15.85-25.5 18.48-21.98 21.1-18.45 23.43-15.05 25.75-11.65 27.35-9L27.35-9 27.35-34.65 32.1-34.65 32.1 0ZM38.95-12.95L38.95-12.95Q38.95-16.4 39.95-18.98 40.95-21.55 42.6-23.25 44.25-24.95 46.4-25.8 48.55-26.65 50.8-26.65L50.8-26.65Q56.05-26.65 58.85-23.38 61.65-20.1 61.65-13.4L61.65-13.4Q61.65-13.1 61.65-12.63 61.65-12.15 61.6-11.75L61.6-11.75 43.8-11.75Q44.1-7.7 46.15-5.6 48.2-3.5 52.55-3.5L52.55-3.5Q55-3.5 56.67-3.93 58.35-4.35 59.2-4.75L59.2-4.75 59.85-0.85Q59-0.4 56.87 0.1 54.75 0.6 52.05 0.6L52.05 0.6Q48.65 0.6 46.17-0.43 43.7-1.45 42.1-3.25 40.5-5.05 39.72-7.53 38.95-10 38.95-12.95ZM43.9-15.5L56.8-15.5Q56.85-18.65 55.22-20.68 53.6-22.7 50.75-22.7L50.75-22.7Q49.15-22.7 47.92-22.08 46.7-21.45 45.85-20.45 45-19.45 44.52-18.15 44.05-16.85 43.9-15.5L43.9-15.5ZM93.64 0L89.59 0Q88.19-3.6 86.62-8.22 85.05-12.85 83.75-17.85L83.75-17.85Q82.44-12.85 80.89-8.22 79.34-3.6 77.94 0L77.94 0 73.89 0Q71.59-5.15 69.39-11.75 67.19-18.35 65.25-26L65.25-26 70.25-26Q70.75-23.65 71.44-20.9 72.14-18.15 72.92-15.4 73.69-12.65 74.55-10.1 75.39-7.55 76.14-5.65L76.14-5.65Q77-8 77.82-10.63 78.64-13.25 79.39-15.93 80.14-18.6 80.82-21.18 81.5-23.75 82-26L82-26 85.84-26Q86.3-23.75 86.94-21.18 87.59-18.6 88.34-15.93 89.09-13.25 89.92-10.63 90.75-8 91.59-5.65L91.59-5.65Q92.34-7.55 93.17-10.1 94-12.65 94.8-15.4 95.59-18.15 96.3-20.9 97-23.65 97.5-26L97.5-26 102.3-26Q100.34-18.35 98.15-11.75 95.94-5.15 93.64 0L93.64 0ZM115.54-3.45L115.54-3.45Q123.14-3.45 123.14-8.65L123.14-8.65Q123.14-10.25 122.47-11.38 121.79-12.5 120.64-13.33 119.49-14.15 118.02-14.75 116.54-15.35 114.89-15.95L114.89-15.95Q112.99-16.6 111.29-17.43 109.59-18.25 108.34-19.38 107.09-20.5 106.37-22.05 105.64-23.6 105.64-25.8L105.64-25.8Q105.64-30.35 108.74-32.9 111.84-35.45 117.29-35.45L117.29-35.45Q120.44-35.45 123.02-34.77 125.59-34.1 126.79-33.3L126.79-33.3 125.24-29.35Q124.19-30 122.12-30.63 120.04-31.25 117.29-31.25L117.29-31.25Q115.89-31.25 114.69-30.95 113.49-30.65 112.59-30.05 111.69-29.45 111.17-28.53 110.64-27.6 110.64-26.35L110.64-26.35Q110.64-24.95 111.19-24 111.74-23.05 112.74-22.33 113.74-21.6 115.07-21 116.39-20.4 117.99-19.8L117.99-19.8Q120.24-18.9 122.12-18 123.99-17.1 125.37-15.85 126.74-14.6 127.49-12.88 128.24-11.15 128.24-8.7L128.24-8.7Q128.24-4.15 124.92-1.7 121.59 0.75 115.54 0.75L115.54 0.75Q113.49 0.75 111.77 0.48 110.04 0.2 108.69-0.18 107.34-0.55 106.37-0.98 105.39-1.4 104.84-1.7L104.84-1.7 106.29-5.7Q107.44-5.05 109.79-4.25 112.14-3.45 115.54-3.45ZM138.14-34.05L138.14-26 147.99-26 147.99-22.1 138.14-22.1 138.14-10.1Q138.14-8.15 138.44-6.88 138.74-5.6 139.34-4.88 139.94-4.15 140.84-3.85 141.74-3.55 142.94-3.55L142.94-3.55Q145.04-3.55 146.31-4.03 147.59-4.5 148.09-4.7L148.09-4.7 148.99-0.85Q148.29-0.5 146.54 0.03 144.79 0.55 142.54 0.55L142.54 0.55Q139.89 0.55 138.16-0.13 136.44-0.8 135.39-2.15 134.34-3.5 133.91-5.48 133.49-7.45 133.49-10.05L133.49-10.05 133.49-33.25 138.14-34.05ZM149.99 8.6L150.84 4.85Q151.39 5.1 152.26 5.33 153.14 5.55 153.99 5.55L153.99 5.55Q156.74 5.55 158.29 4.33 159.84 3.1 161.09 0.35L161.09 0.35Q157.94-5.65 155.21-12.38 152.49-19.1 150.69-26L150.69-26 155.69-26Q156.24-23.75 157.01-21.15 157.79-18.55 158.74-15.8 159.69-13.05 160.79-10.3 161.89-7.55 163.09-5L163.09-5Q164.99-10.25 166.39-15.4 167.79-20.55 169.04-26L169.04-26 173.84-26Q172.04-18.65 169.84-11.88 167.64-5.1 165.09 0.8L165.09 0.8Q164.09 3.05 163.01 4.67 161.94 6.3 160.64 7.35 159.34 8.4 157.71 8.9 156.09 9.4 154.04 9.4L154.04 9.4Q153.49 9.4 152.89 9.33 152.29 9.25 151.71 9.13 151.14 9 150.66 8.85 150.19 8.7 149.99 8.6L149.99 8.6ZM187.18-3.4L186.53 0.5Q182.23 0.4 180.43-1.35 178.63-3.1 178.63-6.8L178.63-6.8 178.63-38 183.28-38.8 183.28-7.55Q183.28-6.4 183.48-5.65 183.68-4.9 184.13-4.45 184.58-4 185.33-3.78 186.08-3.55 187.18-3.4L187.18-3.4ZM190.93-12.95L190.93-12.95Q190.93-16.4 191.93-18.98 192.93-21.55 194.58-23.25 196.23-24.95 198.38-25.8 200.53-26.65 202.78-26.65L202.78-26.65Q208.03-26.65 210.83-23.38 213.63-20.1 213.63-13.4L213.63-13.4Q213.63-13.1 213.63-12.63 213.63-12.15 213.58-11.75L213.58-11.75 195.78-11.75Q196.08-7.7 198.13-5.6 200.18-3.5 204.53-3.5L204.53-3.5Q206.98-3.5 208.66-3.93 210.33-4.35 211.18-4.75L211.18-4.75 211.83-0.85Q210.98-0.4 208.86 0.1 206.73 0.6 204.03 0.6L204.03 0.6Q200.63 0.6 198.16-0.43 195.68-1.45 194.08-3.25 192.48-5.05 191.71-7.53 190.93-10 190.93-12.95ZM195.88-15.5L208.78-15.5Q208.83-18.65 207.21-20.68 205.58-22.7 202.73-22.7L202.73-22.7Q201.13-22.7 199.91-22.08 198.68-21.45 197.83-20.45 196.98-19.45 196.51-18.15 196.03-16.85 195.88-15.5L195.88-15.5ZM226.38-3.35L226.38-3.35Q229.23-3.35 230.6-4.1 231.98-4.85 231.98-6.5L231.98-6.5Q231.98-8.2 230.63-9.2 229.28-10.2 226.18-11.45L226.18-11.45Q224.68-12.05 223.3-12.68 221.93-13.3 220.93-14.15 219.93-15 219.33-16.2 218.73-17.4 218.73-19.15L218.73-19.15Q218.73-22.6 221.28-24.63 223.83-26.65 228.23-26.65L228.23-26.65Q229.33-26.65 230.43-26.53 231.53-26.4 232.48-26.23 233.43-26.05 234.15-25.85 234.88-25.65 235.28-25.5L235.28-25.5 234.43-21.5Q233.68-21.9 232.08-22.33 230.48-22.75 228.23-22.75L228.23-22.75Q226.28-22.75 224.83-21.98 223.38-21.2 223.38-19.55L223.38-19.55Q223.38-18.7 223.7-18.05 224.03-17.4 224.7-16.88 225.38-16.35 226.38-15.9 227.38-15.45 228.78-14.95L228.78-14.95Q230.63-14.25 232.08-13.58 233.53-12.9 234.55-12 235.58-11.1 236.13-9.83 236.68-8.55 236.68-6.7L236.68-6.7Q236.68-3.1 234-1.25 231.33 0.6 226.38 0.6L226.38 0.6Q222.93 0.6 220.98 0.03 219.03-0.55 218.33-0.85L218.33-0.85 219.18-4.85Q219.98-4.55 221.73-3.95 223.48-3.35 226.38-3.35Z" opacity="1" transform="matrix(1,0,0,1,0,0)" fill="#000000" class="wordmark-text-0" data-fill-palette-color="primary" id="text-0"></path></svg></g></svg></g></svg></g></svg></g></svg></g></svg></g></svg></g><g mask="url(#9916e3cf-a181-4eba-ac58-67d4ca386fbd)"><g transform="matrix(2.7244331994845776, 0, 0, 2.7244331994845776, 81.69031508832683, 1.0000000000000142)"><svg xmlns="http://www.w3.org/2000/svg" xmlns:xlink="http://www.w3.org/1999/xlink" version="1.1" x="0" y="0" viewBox="7.473137116471513 5.742628529564178 85.20648253268374 90.00037147043582" enable-background="new 0 0 100 100" xml:space="preserve" height="90.00037147043582" width="85.20648253268374" class="icon-none" data-fill-palette-color="accent" id="none"><g fill="#00c8bc" data-fill-palette-color="accent"><polygon points="56.841,90.222 56.845,90.218 56.843,90.22  " fill="#000000" data-fill-palette-color="accent"></polygon><path d="M90.482 37.7C85.998 22.096 76.316 10.819 59.001 6.561c-2.03-0.499-4.084-1.189-6.977-0.579 10.211 2.413 18.252 6.976 23.843 14.683 8.758 12.074 11.765 25.599 10.377 40.043-0.127 1.32 0.287 2.92-1.104 4.145-2.191-11.881-5.642-19.967-9.69-22.259 7.368 17.143 7.746 33.831-2.231 49.968 0.562 0.372 0.878 0.222 1.147-0.055C89.653 76.818 96.562 58.856 90.482 37.7z" fill="#000000" data-fill-palette-color="accent"></path><path d="M48.832 50.596c-6.281-6.853-12.595-13.693-15.204-22.726-0.133-0.461-0.235-1.217-1.003-0.93-0.768 0.288-0.486 1.121-0.373 1.622 0.812 3.589 1.742 7.147 3.429 10.493 2.98 5.908 7.085 11.116 11.272 16.282 4.238 5.23 8.705 10.311 12.075 16.116 6.318 10.881 4.52 14.549-2.262 24.29C76.109 87.271 79.782 76.619 48.832 50.596z" fill="#000000" data-fill-palette-color="accent"></path><path d="M26.13 42.62c-4.054 4.958-7.187 9.676-9.501 14.838-5.335 11.903-2.821 21.793 7.606 30.232 1.839 1.488 3.677 3.008 6.761 4.16-1.587-2.096-2.727-3.547-3.807-5.037C8.333 70 26.123 45.542 26.13 42.62z" fill="#000000" data-fill-palette-color="accent"></path><path d="M50.413 39.718c-6.939-5.171-11.906-11.55-13.959-19.757-0.423-1.69-0.76-3.398-1.137-5.098-0.215 0.006-0.431 0.012-0.646 0.018-0.043 0.818-0.149 1.638-0.118 2.453 0.236 6.193 2.181 11.879 5.766 17.077 4.409 6.393 10.31 11.529 16.008 16.836 6.591 6.14 12.88 12.481 15.725 21.096 0.022 0.067 0.302 0.058 0.666 0.118-0.597-8.433-3.253-16.003-9.335-22.337C59.541 46.123 54.868 43.038 50.413 39.718z" fill="#000000" data-fill-palette-color="accent"></path><path d="M32.934 6.445C20.999 6.283 3.559 26.988 8.258 41.6c1.353-7.154 3.958-13.838 7.928-20.009C20.233 15.3 25.281 9.902 32.934 6.445z" fill="#000000" data-fill-palette-color="accent"></path><path d="M21.92 37.831c0.267-0.444 0.677-1.004 0.083-1.401-0.601-0.403-1.011 0.189-1.378 0.543-1.891 1.818-3.827 3.599-5.627 5.494-6.902 7.264-7.943 15.48-4.213 24.423-0.157-8.493 3.291-15.921 7.533-23.12C19.493 41.776 20.729 39.815 21.92 37.831z" fill="#000000" data-fill-palette-color="accent"></path></g></svg></g></g></svg></g><defs></defs></svg><rect width="395.52" height="247.2" fill="none" stroke="none" visibility="hidden"></rect></g></svg></g></svg>